<?xml version="1.0" encoding="utf-8"?>
<svg version="1.0" id="Camada_1" xmlns="http://www.w3.org/2000/svg" xmlns:xlink="http://www.w3.org/1999/xlink" x="0px" y="0px"
	 viewBox="0 0 1318 408" style="enable-background:new 0 0 1318 408;" xml:space="preserve">
<style type="text/css">
	.st0{fill:none;stroke:#105A2C;stroke-width:2;}
	.st1{fill:#FFFFFF;}
	.st2{fill:#1CAC50;}
</style>
<g>
	<path vector-effect="non-scaling-stroke" class="st0" d="M651.9,78.8c10.1,4.7,20.1,9.9,29.8,15.6"/>
	<path vector-effect="non-scaling-stroke" class="st0" d="M671.4,116.2c-9.7-5.8-20.5-9.8-31.2-13.5c0,0-0.1,0-0.1,0
		c-0.1,0-0.1,0.1-0.2,0.1"/>
	<path vector-effect="non-scaling-stroke" class="st0" d="M610.3,305.1c0.2,0.2,0.1,0.2-0.4,0c-10.3-4.5-20.3-10-29.8-16.3"/>
	<path vector-effect="non-scaling-stroke" class="st0" d="M595.3,334.5c-10.3-5-20.5-10.4-30.5-16.3"/>
</g>
<path class="st1" d="M651.9,78.8c10.1,4.7,20.1,9.9,29.8,15.6c9.3,5.5,18.1,11.9,26.4,19c8.6,7.4,15.5,15.5,20.7,24.5
	c7.6,13,10.2,26.5,7.8,40.5c-2,12-7.8,23.5-15.4,33.2c-0.1,0.1-0.1,0.1-0.2,0c0,0-0.1-0.1-0.1-0.1c0.9-7.8,0.7-15.8-0.4-24
	c-4.3-30.7-21.8-55.9-49.1-71.3c-9.7-5.8-20.5-9.8-31.2-13.5c0,0-0.1,0-0.1,0c-0.1,0-0.1,0.1-0.2,0.1c-0.1-0.3-0.3-0.5-0.6-0.6
	c-15.9-5.5-31.1-12-45.8-19.4c-5.8-3-11.6-6.6-17.4-11C561.7,60.9,554.3,47,558.8,29c2.2-8.9,6.6-18.3,13.1-28.2
	c0.1-0.1,0.2-0.1,0.3-0.1c0.1,0,0.1,0.1,0.1,0.2c1.3,8.5,4.3,16.2,9,23c7.4,10.7,16.4,20.1,27.1,28.2
	C622,62.4,636.5,71.3,651.9,78.8z"/>
<path class="st2" d="M681.7,94.4c-9.8-5.7-19.7-10.9-29.8-15.6c7-24.2,2.4-49.8-9.1-71.7c0-0.1,0-0.2,0.1-0.3c0.1,0,0.1,0,0.2,0
	C670.6,27.4,692.5,58.4,681.7,94.4z"/>
<path class="st1" d="M44.9,221.3c-0.2,0-0.4,0.2-0.4,0.4v50.8c0,0.2-0.1,0.3-0.3,0.3H0.8c-0.2,0-0.3-0.1-0.3-0.3V99.3
	c0-0.2,0.1-0.3,0.3-0.3c25.9,0,51,0,75.4,0c8,0,14,0.4,18,1.2c22.9,4.7,39.3,21.4,44,44.5c7.1,34.5-10,67.5-45.7,75.4
	c-4.2,0.9-11.1,1.4-20.7,1.3C56.6,221.2,47.7,221.2,44.9,221.3z M44.6,138.3l-0.2,52.2c0,0.2,0.2,0.4,0.3,0.4h0l25,0.1
	c12.1,0,21.9-9.6,21.9-21.5c0,0,0,0,0,0l0-9.8c0-11.9-9.7-21.6-21.8-21.6l-25-0.1C44.7,137.9,44.6,138.1,44.6,138.3z"/>
<path class="st1" d="M299.1,272.4c0.1,0.1,0,0.3-0.1,0.3c0,0-0.1,0-0.1,0h-55.8c-0.3,0-0.6-0.2-0.8-0.5l-22.9-49.6
	c-0.2-0.5-0.7-0.9-1.2-1c-7.9-1.3-16.1-2.1-24.7-2.4c-0.1,0-0.3,0.1-0.3,0.2c0,0,0,0,0,0v52.8c0,0.2-0.1,0.3-0.3,0.3h-42.9
	c-0.2,0-0.3-0.1-0.3-0.3l0,0V100.1c0-0.2,0.2-0.4,0.4-0.4c61.8,0,93.9,0,96.3,0c7.1-0.1,12.3,0.3,15.4,1.4
	c21.2,7.1,30.8,27.9,31.7,48.9c1.1,24.3-3.9,50.6-30.9,58c-0.1,0-0.2,0.1-0.1,0.2c0,0,0,0,0,0C275,229.1,287.2,250.5,299.1,272.4z
	 M192.1,141.1l0.2,43.1c0,0.3,0.2,0.5,0.5,0.5c0,0,0,0,0,0l33.9-0.2c12.9-0.1,23.3-9,23.3-20l0-4.2c-0.1-11-10.6-19.8-23.5-19.8
	c0,0,0,0,0,0l-33.8,0.2C192.3,140.6,192.1,140.8,192.1,141.1L192.1,141.1z"/>
<path class="st1" d="M389.8,100.1c15.5,0.1,31.8,2.5,45.7,9.6c27.5,14.1,40.4,39.8,41.9,70.8c0.1,1.2,0.1,3.8,0.1,7.9
	c0,4.1-0.1,6.7-0.1,7.9c-1.9,30.9-15,56.5-42.7,70.3c-13.9,6.9-30.3,9.2-45.8,9.1c-15.5-0.1-31.8-2.5-45.7-9.6
	c-27.5-14.1-40.4-39.8-41.9-70.7c-0.1-1.2-0.1-3.8-0.1-7.9c0-4.1,0.1-6.7,0.1-7.9c1.9-30.9,15-56.5,42.7-70.3
	C358,102.2,374.4,100,389.8,100.1z M345.7,187.8c0.1,26.7,12.6,47.3,41.8,47.3c29.2-0.1,41.7-20.7,41.7-47.5
	c-0.1-26.7-12.6-47.3-41.9-47.3C358.1,140.4,345.6,161,345.7,187.8z"/>
<path class="st2" d="M772.2,100.8c14.3,0,30.4,0,48.3,0.1c19.3,0.1,38.6,2.1,56.6,9c30,11.6,43.4,36.8,45.2,67.9
	c0.4,6.7,0.4,12.8,0,18.3c-2,29.2-15,52.8-41.8,66c-17,8.4-37.2,11.6-56,11.6c-18.6,0.1-36.2,0.1-52.7,0c-0.2,0-0.3-0.1-0.3-0.3
	V101.5C771.5,101.1,771.8,100.8,772.2,100.8C772.2,100.8,772.2,100.8,772.2,100.8z M815.7,187c0,36.3,0,55.2,0,56.5
	c0,0.3,0.2,0.5,0.5,0.5c6.6,0.6,13.6,0.2,21-1.2c27.3-5.1,38.3-26.2,38.7-52c0-0.4,0-1.6,0-3.7c0-2.1,0-3.3,0-3.7
	c-0.4-25.8-11.3-46.9-38.6-52.1c-7.4-1.4-14.5-1.8-21-1.2c-0.3,0-0.5,0.3-0.5,0.5C815.8,131.9,815.8,150.7,815.7,187z"/>
<path class="st2" d="M1045.7,192.6C1045.7,192.7,1045.7,192.7,1045.7,192.6C1045.7,192.6,1045.8,192.6,1045.7,192.6l0.1-91.4
	c0-0.3,0.2-0.5,0.5-0.5h45c0.2,0,0.3,0.1,0.3,0.3v172.1c0,0.3-0.3,0.6-0.6,0.6h-42.2c-0.4,0-0.7-0.2-0.9-0.5l-66.3-94.6
	c-0.1-0.1-0.2-0.1-0.4-0.1c-0.1,0-0.1,0.1-0.1,0.2v94.3c0,0.3-0.3,0.6-0.6,0.6h-38.7c-0.3,0-0.6-0.3-0.6-0.6v0l1.6-171.6
	c0-0.4,0.3-0.8,0.8-0.8h37.4c0.2,0,0.4,0.1,0.6,0.3L1045.7,192.6z"/>
<path class="st2" d="M1172.4,100.8h46.2c0.2,0,0.3,0.1,0.3,0.2l65.9,172.2c0.1,0.2,0,0.4-0.2,0.5c0,0-0.1,0-0.1,0h-45.3
	c-0.2,0-0.3-0.1-0.3-0.2l-11.2-29.3c-0.1-0.1-0.2-0.2-0.3-0.2h-62.7c-0.2,0-0.3,0.1-0.3,0.2l-11.4,29.3c-0.1,0.1-0.2,0.2-0.4,0.2
	h-42.2c-0.2,0-0.4-0.2-0.4-0.4c0,0,0-0.1,0-0.1l62-172.2C1172.1,100.8,1172.2,100.7,1172.4,100.8z M1196,157
	c-0.1-0.2-0.3-0.3-0.4-0.2c-0.1,0-0.2,0.1-0.2,0.2l-17.1,47.5c-0.1,0.2,0,0.4,0.2,0.4c0,0,0.1,0,0.1,0h36.1c0.2,0,0.3-0.2,0.3-0.3
	c0,0,0-0.1,0-0.1L1196,157z"/>
<path class="st2" d="M671.4,116.2c-9,14.5-23.2,27.7-36.8,36.9c-7.5,5.1-14.9,10.2-22.3,15.2c-11.8,8-23.1,17-34,26.8
	c-0.1,0.1-0.1,0.2,0,0.3c0,0,0.1,0.1,0.2,0.1h109.7c0.3,0,0.7-0.2,0.9-0.4c4.5-5.6,8-11.5,10.5-17.9c0.1-0.2,0-0.3-0.2-0.4
	c0,0-0.1,0-0.1,0H656c-0.3,0-0.6,0.2-0.7,0.5c-0.7,2-1.4,3.2-1.9,3.8c-2.7,2.5-5.5,3.1-8.6,1.9c-9.1-3.6-4.1-17.6,5.5-14.3
	c2.6,0.9,4.2,2.8,4.9,5.8c0,0.2,0.2,0.4,0.5,0.4h44.1c0.3,0,0.6-0.2,0.7-0.6c0.1-0.7,0.2-1.2,0.4-1.5c0.1-0.2,0.4-0.3,0.6-0.1
	c0.1,0,0.1,0.1,0.2,0.2c3.5,7.4,5.6,13.4,6.4,18.2c2,12-0.2,23.3-6.6,33.8c-5,8.2-11.2,15.8-18.7,22.7c-15,13.9-30.1,24.3-48.1,35.9
	c-9.2,5.9-17.3,13.1-24.4,21.7c0.2,0.2,0.1,0.2-0.4,0c-10.3-4.5-20.3-10-29.8-16.3c3.9-5,8-9.5,12.3-13.7
	c9.7-9.4,18.7-16.2,31.2-24.6c16.7-11.3,32.8-23.2,47-35.9c0.1-0.1,0.2-0.3,0-0.5c-0.1-0.1-0.2-0.1-0.3-0.1H560.9
	c-0.1,0-0.2,0.1-0.3,0.1c-4,5.1-7.2,10.4-9.5,16c-0.1,0.2,0,0.5,0.2,0.6c0.1,0,0.1,0,0.2,0h43.3c0.3,0,0.6-0.2,0.7-0.5
	c0.8-3.1,2.6-5,5.5-5.7c8-2.1,13.2,8.2,6.7,13.4c-4.5,3.6-10.8,1.2-12.3-4.6c-0.1-0.3-0.4-0.5-0.7-0.5H551c-0.4,0-0.8,0.3-0.9,0.7
	c-0.1,0.6-0.2,0.8-0.2,0.9c-0.2,0.2-0.5,0.1-0.6,0c0,0,0-0.1-0.1-0.1c-3.4-7.1-5.6-13.1-6.6-17.9c-3.9-18.8,5-35.6,17.9-48.7
	c10.5-10.7,22.5-20.5,36-29.5c9-6,15.4-10.2,19.2-12.6c8.6-5.5,16.7-13.1,24-22.8c0.1-0.1,0.2-0.1,0.2-0.1c0,0,0.1,0,0.1,0
	C650.9,106.4,661.6,110.3,671.4,116.2z M686.9,198.4c0.2-0.2,0.2-0.6,0-0.8c-0.1-0.1-0.2-0.2-0.4-0.2H576.2c-0.1,0-0.3,0.1-0.4,0.2
	l-13.4,13.4c-0.2,0.2-0.2,0.6,0,0.8c0.1,0.1,0.2,0.2,0.4,0.2h110.3c0.1,0,0.3-0.1,0.4-0.2L686.9,198.4z"/>
<ellipse class="st2" cx="670" cy="149.3" rx="6.5" ry="8.8"/>
<path class="st1" d="M580.1,288.9c9.5,6.3,19.4,11.8,29.8,16.3c0.5,0.2,0.6,0.2,0.4,0c0.2,0.4,0.4,0.7,0.6,0.8
	c15.8,6.8,30.9,14.7,45.1,23.6c8.4,5.3,16,11.4,22.6,18.4c10.1,10.6,15.3,24,11.4,38.8c-2,7.4-5.3,14.4-10,20.9
	c-0.1,0.1-0.3,0.1-0.4,0c-0.1,0-0.1-0.1-0.1-0.2c-0.9-8.5-7.8-18.4-13.8-25.2c-18.7-20.9-44.8-36.2-70.4-47.9
	c-10.3-5-20.5-10.4-30.5-16.3c-15.5-9-30.9-20.1-42-34.2c-13.2-16.7-16.3-35.2-9.4-55.5c3.2-9.3,7.4-17.8,12.7-25.5
	c0.1-0.1,0.2-0.1,0.3,0c0,0,0.1,0.1,0.1,0.1c0,12.8,2.8,24.9,8.4,36.3c4.9,10.1,11.1,19,18.5,26.9
	C561.4,275,570.3,282.5,580.1,288.9z"/>
<ellipse class="st2" cx="580.7" cy="261.2" rx="6.5" ry="8.8"/>
<path class="st1" d="M877.6,286.8l-5.9-2.1c-0.2-0.1-0.3-0.3-0.2-0.4c0,0,0,0,0,0l3.5-9c0.1-0.1,0.2-0.2,0.3-0.2h8.8
	c0.2,0,0.4,0.2,0.4,0.3c0,0.1,0,0.1,0,0.2l-6.4,11.1C878,286.8,877.8,286.9,877.6,286.8z"/>
<path class="st1" d="M1258.7,348.7c-14.8,0-26.7-13-26.7-28.9c0,0,0,0,0,0c0-15.9,12-28.8,26.8-28.8c0,0,0,0,0,0
	c14.8,0,26.7,13,26.7,28.9c0,0,0,0,0,0C1285.5,335.9,1273.5,348.8,1258.7,348.7C1258.7,348.7,1258.7,348.7,1258.7,348.7z
	 M1258.8,339.1c8.9,0,16.1-8.6,16.1-19.1s-7.2-19.1-16.1-19.2c-8.9,0-16.1,8.6-16.1,19.2S1249.9,339.1,1258.8,339.1z"/>
<path class="st1" d="M937.5,320.1c0.1,5.6,2.2,11.2,6.3,15c7.1,6.6,19.2,4.2,23.2-4.6c0.1-0.2,0.3-0.2,0.4-0.2c0,0,0,0,0,0l7.9,4.5
	c0.3,0.2,0.4,0.5,0.3,0.8c-2.8,6.7-10,11.3-17.1,12.4c-11,1.7-19.8-2-26.3-11.2c-3.5-4.9-5.3-10.5-5.4-16.8
	c-0.1-6.3,1.5-11.9,4.9-16.9c6.3-9.4,14.9-13.4,26-12c7.2,0.9,14.5,5.3,17.5,11.9c0.1,0.3,0,0.6-0.2,0.8l-7.7,4.8
	c-0.1,0.1-0.3,0-0.4-0.1c0,0,0,0,0,0c-4.3-8.7-16.5-10.6-23.4-3.8C939.3,308.8,937.4,314.6,937.5,320.1z"/>
<path class="st1" d="M1150,320.3c-0.1-6.3,1.5-11.9,4.8-16.9c6.2-9.4,14.9-13.4,26-12c7.2,0.9,14.6,5.3,17.5,11.9
	c0.1,0.3,0,0.6-0.2,0.8l-7.7,4.8c-0.1,0.1-0.3,0-0.4-0.1c0,0,0,0,0,0c-4.3-8.6-16.5-10.6-23.4-3.8c-4,3.9-5.9,9.7-5.8,15.2
	s2.2,11.2,6.3,15c7.1,6.6,19.2,4.2,23.2-4.6c0.1-0.2,0.3-0.2,0.4-0.2c0,0,0,0,0,0l7.9,4.5c0.3,0.2,0.4,0.5,0.3,0.8
	c-2.8,6.7-10,11.3-17.1,12.4c-11,1.7-19.8-2-26.3-11.2C1151.9,332.2,1150.1,326.6,1150,320.3z"/>
<path class="st1" d="M795.7,291.5c7.6,0,15.1,0,22.4,0c0.3,0,0.5,0.2,0.5,0.5v8.9c0,0.2-0.2,0.4-0.4,0.4l0,0h-16.5
	c-0.3,0-0.6,0.3-0.6,0.6v46.1c0,0.2-0.1,0.3-0.3,0.3c-0.3,0-1.9,0-4.9,0c-2.9,0-4.6,0-4.9,0c-0.2,0-0.3-0.1-0.3-0.3l-0.1-46.1
	c0-0.3-0.3-0.6-0.6-0.6l-16.5,0c-0.2,0-0.4-0.2-0.4-0.4l0,0l0-8.8c0-0.3,0.2-0.5,0.5-0.5l0,0C780.6,291.5,788.1,291.5,795.7,291.5z"
	/>
<path class="st1" d="M855,347.9v-56c0-0.2,0.2-0.4,0.4-0.4l0,0h36.7c0.2,0,0.4,0.2,0.4,0.4c0,0,0,0,0,0v9c0,0.2-0.2,0.4-0.4,0.4h0
	h-25.9c-0.2,0-0.4,0.2-0.4,0.4c0,0,0,0,0,0v12.7c0,0.2,0.2,0.4,0.4,0.4h0h22.2c0.2,0,0.4,0.2,0.4,0.4c0,0,0,0,0,0v8.2
	c0,0.2-0.2,0.4-0.4,0.4l0,0h-22.2c-0.2,0-0.4,0.2-0.4,0.4c0,0,0,0,0,0v14c0,0.2,0.2,0.4,0.4,0.4l0,0h26.7c0.2,0,0.4,0.2,0.4,0.4
	c0,0,0,0,0,0v9c0,0.2-0.2,0.4-0.4,0.4h0h-37.4C855.2,348.3,855,348.1,855,347.9C855,347.9,855,347.9,855,347.9z"/>
<path class="st1" d="M1012.8,347.9v-56.1c0-0.2,0.1-0.3,0.3-0.3h8.2c0.1,0,0.2,0,0.2,0.1l27.7,36.6c0.1,0.1,0.3,0.2,0.4,0.1
	c0.1-0.1,0.1-0.1,0.1-0.2v-36.3c0-0.2,0.1-0.3,0.3-0.3h9.9c0.2,0,0.3,0.1,0.3,0.3c0,0,0,0,0,0v56.1c0,0.2-0.1,0.3-0.3,0.3l0,0h-8.5
	c-0.1,0-0.2,0-0.2-0.1l-27.1-35.8c-0.1-0.1-0.3-0.2-0.4-0.1c-0.1,0.1-0.1,0.1-0.1,0.2v35.5c0,0.2-0.1,0.3-0.3,0.3h-10.1
	C1012.9,348.2,1012.8,348.1,1012.8,347.9z"/>
<path class="st1" d="M1101.9,291.5h9.9c0.2,0,0.4,0.2,0.4,0.4v56c0,0.2-0.2,0.4-0.4,0.4h-9.9c-0.2,0-0.4-0.2-0.4-0.4v-56
	C1101.5,291.7,1101.7,291.5,1101.9,291.5z"/>
<path class="st2" d="M595.3,334.5c-1.9,7.6-2.8,14.5-2.7,20.8c0.3,17.1,4.4,33.3,12.4,48.4c0,0.1,0,0.2-0.1,0.2c-0.1,0-0.1,0-0.2,0
	c-11.9-8.5-21.9-18.9-30.2-31.1c-11-16.3-15-35.3-9.7-54.5C574.8,324.1,584.9,329.5,595.3,334.5z"/>
</svg>
